<?xml version="1.0" encoding="UTF-8"?>
<svg xmlns="http://www.w3.org/2000/svg" width="1400" height="900" viewBox="0 0 1400 900" role="img" aria-label="HNSW layered search simulation">
  <defs>
    <linearGradient id="bg" x1="0%" y1="0%" x2="100%" y2="100%">
      <stop offset="0%" stop-color="#f8fbff" />
      <stop offset="100%" stop-color="#edf3ff" />
    </linearGradient>
    <filter id="shadow" x="-20%" y="-20%" width="140%" height="140%">
      <feDropShadow dx="0" dy="2" stdDeviation="3" flood-opacity="0.16"/>
    </filter>
  </defs>
  <rect x="0" y="0" width="1400" height="900" fill="url(#bg)" />
  <text x="70" y="70" font-size="34" font-family="Inter, Arial, sans-serif" font-weight="700" fill="#111827">HNSW Search Simulation</text>
  <text x="70" y="102" font-size="19" font-family="Inter, Arial, sans-serif" fill="#334155">Top-down greedy routing, then candidate refinement in Layer 0.</text>
  <rect x="70" y="114" width="1120" height="112" rx="15" fill="#ffffff" stroke="#d2ddee" stroke-width="1.5" />
  <text x="90" y="150" font-size="18" font-family="Inter, Arial, sans-serif" fill="#7c3aed" font-weight="700">Layer 3 (sparse routing)</text>
  <rect x="70" y="284" width="1120" height="112" rx="15" fill="#ffffff" stroke="#d2ddee" stroke-width="1.5" />
  <text x="90" y="320" font-size="18" font-family="Inter, Arial, sans-serif" fill="#2563eb" font-weight="700">Layer 2</text>
  <rect x="70" y="464" width="1120" height="112" rx="15" fill="#ffffff" stroke="#d2ddee" stroke-width="1.5" />
  <text x="90" y="500" font-size="18" font-family="Inter, Arial, sans-serif" fill="#0891b2" font-weight="700">Layer 1</text>
  <rect x="70" y="654" width="1120" height="112" rx="15" fill="#ffffff" stroke="#d2ddee" stroke-width="1.5" />
  <text x="90" y="690" font-size="18" font-family="Inter, Arial, sans-serif" fill="#0f766e" font-weight="700">Layer 0 (full graph)</text>
  <line x1="156.31" y1="172.39" x2="229.20" y2="175.13" stroke="#7c3aed" stroke-opacity="0.25" stroke-width="1.6"/>
  <line x1="285.77" y1="149.80" x2="515.85" y2="164.68" stroke="#7c3aed" stroke-opacity="0.25" stroke-width="1.6"/>
  <line x1="603.75" y1="178.95" x2="642.73" y2="167.89" stroke="#7c3aed" stroke-opacity="0.25" stroke-width="1.6"/>
  <line x1="999.23" y1="179.90" x2="1030.33" y2="154.91" stroke="#7c3aed" stroke-opacity="0.25" stroke-width="1.6"/>
  <circle cx="156.31" cy="172.39" r="6.2" fill="#7c3aed" fill-opacity="0.85" />
  <circle cx="229.20" cy="175.13" r="6.2" fill="#7c3aed" fill-opacity="0.85" />
  <circle cx="285.77" cy="149.80" r="6.2" fill="#7c3aed" fill-opacity="0.85" />
  <circle cx="515.85" cy="164.68" r="6.2" fill="#7c3aed" fill-opacity="0.85" />
  <circle cx="603.75" cy="178.95" r="6.2" fill="#7c3aed" fill-opacity="0.85" />
  <circle cx="642.73" cy="167.89" r="6.2" fill="#7c3aed" fill-opacity="0.85" />
  <circle cx="999.23" cy="179.90" r="6.2" fill="#7c3aed" fill-opacity="0.85" />
  <circle cx="1030.33" cy="154.91" r="6.2" fill="#7c3aed" fill-opacity="0.85" />
  <line x1="235.96" y1="329.74" x2="249.64" y2="327.24" stroke="#2563eb" stroke-opacity="0.25" stroke-width="1.6"/>
  <line x1="258.73" y1="330.37" x2="383.25" y2="353.62" stroke="#2563eb" stroke-opacity="0.25" stroke-width="1.6"/>
  <line x1="435.35" y1="326.78" x2="525.99" y2="357.00" stroke="#2563eb" stroke-opacity="0.25" stroke-width="1.6"/>
  <line x1="563.32" y1="356.69" x2="646.14" y2="320.41" stroke="#2563eb" stroke-opacity="0.25" stroke-width="1.6"/>
  <line x1="728.62" y1="334.67" x2="810.75" y2="339.64" stroke="#2563eb" stroke-opacity="0.25" stroke-width="1.6"/>
  <line x1="861.19" y1="319.03" x2="881.17" y2="336.69" stroke="#2563eb" stroke-opacity="0.25" stroke-width="1.6"/>
  <line x1="908.73" y1="357.88" x2="1055.35" y2="322.93" stroke="#2563eb" stroke-opacity="0.25" stroke-width="1.6"/>
  <circle cx="235.96" cy="329.74" r="6.2" fill="#2563eb" fill-opacity="0.85" />
  <circle cx="249.64" cy="327.24" r="6.2" fill="#2563eb" fill-opacity="0.85" />
  <circle cx="258.73" cy="330.37" r="6.2" fill="#2563eb" fill-opacity="0.85" />
  <circle cx="383.25" cy="353.62" r="6.2" fill="#2563eb" fill-opacity="0.85" />
  <circle cx="435.35" cy="326.78" r="6.2" fill="#2563eb" fill-opacity="0.85" />
  <circle cx="525.99" cy="357.00" r="6.2" fill="#2563eb" fill-opacity="0.85" />
  <circle cx="563.32" cy="356.69" r="6.2" fill="#2563eb" fill-opacity="0.85" />
  <circle cx="646.14" cy="320.41" r="6.2" fill="#2563eb" fill-opacity="0.85" />
  <circle cx="728.62" cy="334.67" r="6.2" fill="#2563eb" fill-opacity="0.85" />
  <circle cx="810.75" cy="339.64" r="6.2" fill="#2563eb" fill-opacity="0.85" />
  <circle cx="861.19" cy="319.03" r="6.2" fill="#2563eb" fill-opacity="0.85" />
  <circle cx="881.17" cy="336.69" r="6.2" fill="#2563eb" fill-opacity="0.85" />
  <circle cx="908.73" cy="357.88" r="6.2" fill="#2563eb" fill-opacity="0.85" />
  <circle cx="1055.35" cy="322.93" r="6.2" fill="#2563eb" fill-opacity="0.85" />
  <line x1="158.09" y1="524.68" x2="167.12" y2="504.57" stroke="#0891b2" stroke-opacity="0.25" stroke-width="1.6"/>
  <line x1="203.09" y1="509.81" x2="231.83" y2="541.77" stroke="#0891b2" stroke-opacity="0.25" stroke-width="1.6"/>
  <line x1="233.14" y1="541.91" x2="241.55" y2="503.34" stroke="#0891b2" stroke-opacity="0.25" stroke-width="1.6"/>
  <line x1="268.81" y1="529.04" x2="319.10" y2="539.84" stroke="#0891b2" stroke-opacity="0.25" stroke-width="1.6"/>
  <line x1="348.99" y1="508.42" x2="540.17" y2="524.89" stroke="#0891b2" stroke-opacity="0.25" stroke-width="1.6"/>
  <line x1="561.71" y1="499.89" x2="636.81" y2="514.10" stroke="#0891b2" stroke-opacity="0.25" stroke-width="1.6"/>
  <line x1="678.97" y1="527.66" x2="693.96" y2="523.97" stroke="#0891b2" stroke-opacity="0.25" stroke-width="1.6"/>
  <line x1="717.13" y1="532.08" x2="718.20" y2="501.82" stroke="#0891b2" stroke-opacity="0.25" stroke-width="1.6"/>
  <line x1="734.91" y1="513.28" x2="746.71" y2="536.02" stroke="#0891b2" stroke-opacity="0.25" stroke-width="1.6"/>
  <line x1="775.94" y1="523.70" x2="1027.40" y2="517.86" stroke="#0891b2" stroke-opacity="0.25" stroke-width="1.6"/>
  <line x1="1052.51" y1="515.70" x2="1089.16" y2="541.39" stroke="#0891b2" stroke-opacity="0.25" stroke-width="1.6"/>
  <circle cx="158.09" cy="524.68" r="6.2" fill="#0891b2" fill-opacity="0.85" />
  <circle cx="167.12" cy="504.57" r="6.2" fill="#0891b2" fill-opacity="0.85" />
  <circle cx="203.09" cy="509.81" r="6.2" fill="#0891b2" fill-opacity="0.85" />
  <circle cx="231.83" cy="541.77" r="6.2" fill="#0891b2" fill-opacity="0.85" />
  <circle cx="233.14" cy="541.91" r="6.2" fill="#0891b2" fill-opacity="0.85" />
  <circle cx="241.55" cy="503.34" r="6.2" fill="#0891b2" fill-opacity="0.85" />
  <circle cx="268.81" cy="529.04" r="6.2" fill="#0891b2" fill-opacity="0.85" />
  <circle cx="319.10" cy="539.84" r="6.2" fill="#0891b2" fill-opacity="0.85" />
  <circle cx="348.99" cy="508.42" r="6.2" fill="#0891b2" fill-opacity="0.85" />
  <circle cx="540.17" cy="524.89" r="6.2" fill="#0891b2" fill-opacity="0.85" />
  <circle cx="561.71" cy="499.89" r="6.2" fill="#0891b2" fill-opacity="0.85" />
  <circle cx="636.81" cy="514.10" r="6.2" fill="#0891b2" fill-opacity="0.85" />
  <circle cx="678.97" cy="527.66" r="6.2" fill="#0891b2" fill-opacity="0.85" />
  <circle cx="693.96" cy="523.97" r="6.2" fill="#0891b2" fill-opacity="0.85" />
  <circle cx="717.13" cy="532.08" r="6.2" fill="#0891b2" fill-opacity="0.85" />
  <circle cx="718.20" cy="501.82" r="6.2" fill="#0891b2" fill-opacity="0.85" />
  <circle cx="734.91" cy="513.28" r="6.2" fill="#0891b2" fill-opacity="0.85" />
  <circle cx="746.71" cy="536.02" r="6.2" fill="#0891b2" fill-opacity="0.85" />
  <circle cx="775.94" cy="523.70" r="6.2" fill="#0891b2" fill-opacity="0.85" />
  <circle cx="1027.40" cy="517.86" r="6.2" fill="#0891b2" fill-opacity="0.85" />
  <circle cx="1052.51" cy="515.70" r="6.2" fill="#0891b2" fill-opacity="0.85" />
  <circle cx="1089.16" cy="541.39" r="6.2" fill="#0891b2" fill-opacity="0.85" />
  <line x1="168.00" y1="731.39" x2="174.88" y2="714.69" stroke="#0f766e" stroke-opacity="0.25" stroke-width="1.6"/>
  <line x1="199.49" y1="688.52" x2="237.04" y2="690.68" stroke="#0f766e" stroke-opacity="0.25" stroke-width="1.6"/>
  <line x1="251.01" y1="697.18" x2="317.64" y2="705.11" stroke="#0f766e" stroke-opacity="0.25" stroke-width="1.6"/>
  <line x1="319.30" y1="714.91" x2="359.16" y2="730.52" stroke="#0f766e" stroke-opacity="0.25" stroke-width="1.6"/>
  <line x1="376.33" y1="703.60" x2="393.30" y2="694.19" stroke="#0f766e" stroke-opacity="0.25" stroke-width="1.6"/>
  <line x1="403.73" y1="712.73" x2="468.22" y2="694.04" stroke="#0f766e" stroke-opacity="0.25" stroke-width="1.6"/>
  <line x1="472.14" y1="691.81" x2="511.97" y2="712.46" stroke="#0f766e" stroke-opacity="0.25" stroke-width="1.6"/>
  <line x1="515.51" y1="718.62" x2="542.89" y2="690.89" stroke="#0f766e" stroke-opacity="0.25" stroke-width="1.6"/>
  <line x1="566.51" y1="707.86" x2="574.90" y2="718.97" stroke="#0f766e" stroke-opacity="0.25" stroke-width="1.6"/>
  <line x1="585.13" y1="721.62" x2="637.38" y2="704.85" stroke="#0f766e" stroke-opacity="0.25" stroke-width="1.6"/>
  <line x1="712.95" y1="727.04" x2="766.92" y2="695.44" stroke="#0f766e" stroke-opacity="0.25" stroke-width="1.6"/>
  <line x1="804.16" y1="719.48" x2="845.26" y2="721.96" stroke="#0f766e" stroke-opacity="0.25" stroke-width="1.6"/>
  <line x1="872.86" y1="726.73" x2="915.11" y2="709.76" stroke="#0f766e" stroke-opacity="0.25" stroke-width="1.6"/>
  <line x1="918.42" y1="692.37" x2="933.38" y2="690.13" stroke="#0f766e" stroke-opacity="0.25" stroke-width="1.6"/>
  <line x1="941.40" y1="711.27" x2="976.41" y2="695.63" stroke="#0f766e" stroke-opacity="0.25" stroke-width="1.6"/>
  <line x1="992.70" y1="715.71" x2="1077.59" y2="691.71" stroke="#0f766e" stroke-opacity="0.25" stroke-width="1.6"/>
  <line x1="1094.79" y1="722.33" x2="1105.75" y2="697.79" stroke="#0f766e" stroke-opacity="0.25" stroke-width="1.6"/>
  <circle cx="168.00" cy="731.39" r="6.2" fill="#0f766e" fill-opacity="0.85" />
  <circle cx="174.88" cy="714.69" r="6.2" fill="#0f766e" fill-opacity="0.85" />
  <circle cx="199.49" cy="688.52" r="6.2" fill="#0f766e" fill-opacity="0.85" />
  <circle cx="237.04" cy="690.68" r="6.2" fill="#0f766e" fill-opacity="0.85" />
  <circle cx="251.01" cy="697.18" r="6.2" fill="#0f766e" fill-opacity="0.85" />
  <circle cx="317.64" cy="705.11" r="6.2" fill="#0f766e" fill-opacity="0.85" />
  <circle cx="319.30" cy="714.91" r="6.2" fill="#0f766e" fill-opacity="0.85" />
  <circle cx="359.16" cy="730.52" r="6.2" fill="#0f766e" fill-opacity="0.85" />
  <circle cx="376.33" cy="703.60" r="6.2" fill="#0f766e" fill-opacity="0.85" />
  <circle cx="393.30" cy="694.19" r="6.2" fill="#0f766e" fill-opacity="0.85" />
  <circle cx="403.73" cy="712.73" r="6.2" fill="#0f766e" fill-opacity="0.85" />
  <circle cx="468.22" cy="694.04" r="6.2" fill="#0f766e" fill-opacity="0.85" />
  <circle cx="472.14" cy="691.81" r="6.2" fill="#0f766e" fill-opacity="0.85" />
  <circle cx="511.97" cy="712.46" r="6.2" fill="#0f766e" fill-opacity="0.85" />
  <circle cx="515.51" cy="718.62" r="6.2" fill="#0f766e" fill-opacity="0.85" />
  <circle cx="542.89" cy="690.89" r="6.2" fill="#0f766e" fill-opacity="0.85" />
  <circle cx="566.51" cy="707.86" r="6.2" fill="#0f766e" fill-opacity="0.85" />
  <circle cx="574.90" cy="718.97" r="6.2" fill="#0f766e" fill-opacity="0.85" />
  <circle cx="585.13" cy="721.62" r="6.2" fill="#0f766e" fill-opacity="0.85" />
  <circle cx="637.38" cy="704.85" r="6.2" fill="#0f766e" fill-opacity="0.85" />
  <circle cx="712.95" cy="727.04" r="6.2" fill="#0f766e" fill-opacity="0.85" />
  <circle cx="766.92" cy="695.44" r="6.2" fill="#0f766e" fill-opacity="0.85" />
  <circle cx="804.16" cy="719.48" r="6.2" fill="#0f766e" fill-opacity="0.85" />
  <circle cx="845.26" cy="721.96" r="6.2" fill="#0f766e" fill-opacity="0.85" />
  <circle cx="872.86" cy="726.73" r="6.2" fill="#0f766e" fill-opacity="0.85" />
  <circle cx="915.11" cy="709.76" r="6.2" fill="#0f766e" fill-opacity="0.85" />
  <circle cx="918.42" cy="692.37" r="6.2" fill="#0f766e" fill-opacity="0.85" />
  <circle cx="933.38" cy="690.13" r="6.2" fill="#0f766e" fill-opacity="0.85" />
  <circle cx="941.40" cy="711.27" r="6.2" fill="#0f766e" fill-opacity="0.85" />
  <circle cx="976.41" cy="695.63" r="6.2" fill="#0f766e" fill-opacity="0.85" />
  <circle cx="992.70" cy="715.71" r="6.2" fill="#0f766e" fill-opacity="0.85" />
  <circle cx="1077.59" cy="691.71" r="6.2" fill="#0f766e" fill-opacity="0.85" />
  <circle cx="1094.79" cy="722.33" r="6.2" fill="#0f766e" fill-opacity="0.85" />
  <circle cx="1105.75" cy="697.79" r="6.2" fill="#0f766e" fill-opacity="0.85" />
  <line x1="229.20" y1="175.13" x2="435.35" y2="326.78" stroke="#111827" stroke-width="3.6" stroke-linecap="round"/>
  <line x1="435.35" y1="326.78" x2="561.71" y2="499.89" stroke="#111827" stroke-width="3.6" stroke-linecap="round"/>
  <line x1="561.71" y1="499.89" x2="585.13" y2="721.62" stroke="#111827" stroke-width="3.6" stroke-linecap="round"/>
  <circle cx="229.20" cy="175.13" r="10.5" fill="none" stroke="#111827" stroke-width="2.6" />
  <circle cx="435.35" cy="326.78" r="10.5" fill="none" stroke="#111827" stroke-width="2.6" />
  <circle cx="561.71" cy="499.89" r="10.5" fill="none" stroke="#111827" stroke-width="2.6" />
  <circle cx="585.13" cy="721.62" r="10.5" fill="none" stroke="#111827" stroke-width="2.6" />
  <circle cx="1240" cy="710" r="12" fill="#dc2626" filter="url(#shadow)" />
  <text x="1258" y="716" font-size="18" font-family="Inter, Arial, sans-serif" fill="#7f1d1d" font-weight="700">Query</text>
  <line x1="1240" y1="710" x2="1105.75" y2="697.79" stroke="#dc2626" stroke-opacity="0.45" stroke-width="2" stroke-dasharray="6 6"/>
  <circle cx="1105.75" cy="697.79" r="9" fill="none" stroke="#dc2626" stroke-width="2"/>
  <line x1="1240" y1="710" x2="1094.79" y2="722.33" stroke="#dc2626" stroke-opacity="0.45" stroke-width="2" stroke-dasharray="6 6"/>
  <circle cx="1094.79" cy="722.33" r="9" fill="none" stroke="#dc2626" stroke-width="2"/>
  <line x1="1240" y1="710" x2="1077.59" y2="691.71" stroke="#dc2626" stroke-opacity="0.45" stroke-width="2" stroke-dasharray="6 6"/>
  <circle cx="1077.59" cy="691.71" r="9" fill="none" stroke="#dc2626" stroke-width="2"/>
  <line x1="1240" y1="710" x2="992.70" y2="715.71" stroke="#dc2626" stroke-opacity="0.45" stroke-width="2" stroke-dasharray="6 6"/>
  <circle cx="992.70" cy="715.71" r="9" fill="none" stroke="#dc2626" stroke-width="2"/>
  <line x1="1240" y1="710" x2="976.41" y2="695.63" stroke="#dc2626" stroke-opacity="0.45" stroke-width="2" stroke-dasharray="6 6"/>
  <circle cx="976.41" cy="695.63" r="9" fill="none" stroke="#dc2626" stroke-width="2"/>
  <line x1="1240" y1="710" x2="941.40" y2="711.27" stroke="#dc2626" stroke-opacity="0.45" stroke-width="2" stroke-dasharray="6 6"/>
  <circle cx="941.40" cy="711.27" r="9" fill="none" stroke="#dc2626" stroke-width="2"/>
  <line x1="1240" y1="710" x2="933.38" y2="690.13" stroke="#dc2626" stroke-opacity="0.45" stroke-width="2" stroke-dasharray="6 6"/>
  <circle cx="933.38" cy="690.13" r="9" fill="none" stroke="#dc2626" stroke-width="2"/>
  <line x1="1240" y1="710" x2="918.42" y2="692.37" stroke="#dc2626" stroke-opacity="0.45" stroke-width="2" stroke-dasharray="6 6"/>
  <circle cx="918.42" cy="692.37" r="9" fill="none" stroke="#dc2626" stroke-width="2"/>
  <rect x="1210" y="170" width="170" height="390" rx="14" fill="#ffffff" stroke="#cbd7ea" stroke-width="1.5" filter="url(#shadow)" />
  <text x="1224" y="204" font-size="18" font-family="Inter, Arial, sans-serif" font-weight="700" fill="#0f172a">HNSW steps</text>
  <text x="1224" y="242" font-size="14" font-family="Inter, Arial, sans-serif" fill="#334155">1. Enter top layer</text>
  <text x="1224" y="272" font-size="14" font-family="Inter, Arial, sans-serif" fill="#334155">2. Greedy descent</text>
  <text x="1224" y="302" font-size="14" font-family="Inter, Arial, sans-serif" fill="#334155">3. Reach Layer 0</text>
  <text x="1224" y="332" font-size="14" font-family="Inter, Arial, sans-serif" fill="#334155">4. Explore candidates</text>
  <text x="1224" y="362" font-size="14" font-family="Inter, Arial, sans-serif" fill="#334155">5. Return top-k</text>
  <line x1="1224" y1="384" x2="1366" y2="384" stroke="#d8e2f0" stroke-width="1" />
  <text x="1224" y="416" font-size="13" font-family="Inter, Arial, sans-serif" fill="#475569">Main knobs</text>
  <text x="1224" y="444" font-size="13" font-family="Inter, Arial, sans-serif" fill="#334155">M</text>
  <text x="1274" y="444" font-size="13" font-family="Inter, Arial, sans-serif" fill="#334155">graph degree</text>
  <text x="1224" y="470" font-size="13" font-family="Inter, Arial, sans-serif" fill="#334155">efConstruction</text>
  <text x="1224" y="496" font-size="13" font-family="Inter, Arial, sans-serif" fill="#334155">efSearch</text>
</svg>