<?xml version="1.0" encoding="UTF-8"?>
<svg xmlns="http://www.w3.org/2000/svg" width="1400" height="880" viewBox="0 0 1400 880" role="img" aria-label="Vector search simulation">
  <defs>
    <linearGradient id="bg" x1="0%" y1="0%" x2="100%" y2="100%">
      <stop offset="0%" stop-color="#f8fbff" />
      <stop offset="100%" stop-color="#edf3ff" />
    </linearGradient>
    <filter id="shadow" x="-20%" y="-20%" width="140%" height="140%">
      <feDropShadow dx="0" dy="2" stdDeviation="3" flood-opacity="0.18"/>
    </filter>
  </defs>
  <rect x="0" y="0" width="1400" height="880" fill="url(#bg)" />
  <line x1="100" y1="100" x2="100" y2="760" stroke="#dbe4f3" stroke-width="1" />
  <line x1="150" y1="100" x2="150" y2="760" stroke="#dbe4f3" stroke-width="1" />
  <line x1="200" y1="100" x2="200" y2="760" stroke="#dbe4f3" stroke-width="1" />
  <line x1="250" y1="100" x2="250" y2="760" stroke="#dbe4f3" stroke-width="1" />
  <line x1="300" y1="100" x2="300" y2="760" stroke="#dbe4f3" stroke-width="1" />
  <line x1="350" y1="100" x2="350" y2="760" stroke="#dbe4f3" stroke-width="1" />
  <line x1="400" y1="100" x2="400" y2="760" stroke="#dbe4f3" stroke-width="1" />
  <line x1="450" y1="100" x2="450" y2="760" stroke="#dbe4f3" stroke-width="1" />
  <line x1="500" y1="100" x2="500" y2="760" stroke="#dbe4f3" stroke-width="1" />
  <line x1="550" y1="100" x2="550" y2="760" stroke="#dbe4f3" stroke-width="1" />
  <line x1="600" y1="100" x2="600" y2="760" stroke="#dbe4f3" stroke-width="1" />
  <line x1="650" y1="100" x2="650" y2="760" stroke="#dbe4f3" stroke-width="1" />
  <line x1="700" y1="100" x2="700" y2="760" stroke="#dbe4f3" stroke-width="1" />
  <line x1="750" y1="100" x2="750" y2="760" stroke="#dbe4f3" stroke-width="1" />
  <line x1="800" y1="100" x2="800" y2="760" stroke="#dbe4f3" stroke-width="1" />
  <line x1="850" y1="100" x2="850" y2="760" stroke="#dbe4f3" stroke-width="1" />
  <line x1="900" y1="100" x2="900" y2="760" stroke="#dbe4f3" stroke-width="1" />
  <line x1="950" y1="100" x2="950" y2="760" stroke="#dbe4f3" stroke-width="1" />
  <line x1="1000" y1="100" x2="1000" y2="760" stroke="#dbe4f3" stroke-width="1" />
  <line x1="1050" y1="100" x2="1050" y2="760" stroke="#dbe4f3" stroke-width="1" />
  <line x1="1100" y1="100" x2="1100" y2="760" stroke="#dbe4f3" stroke-width="1" />
  <line x1="1150" y1="100" x2="1150" y2="760" stroke="#dbe4f3" stroke-width="1" />
  <line x1="100" y1="100" x2="1180" y2="100" stroke="#dbe4f3" stroke-width="1" />
  <line x1="100" y1="150" x2="1180" y2="150" stroke="#dbe4f3" stroke-width="1" />
  <line x1="100" y1="200" x2="1180" y2="200" stroke="#dbe4f3" stroke-width="1" />
  <line x1="100" y1="250" x2="1180" y2="250" stroke="#dbe4f3" stroke-width="1" />
  <line x1="100" y1="300" x2="1180" y2="300" stroke="#dbe4f3" stroke-width="1" />
  <line x1="100" y1="350" x2="1180" y2="350" stroke="#dbe4f3" stroke-width="1" />
  <line x1="100" y1="400" x2="1180" y2="400" stroke="#dbe4f3" stroke-width="1" />
  <line x1="100" y1="450" x2="1180" y2="450" stroke="#dbe4f3" stroke-width="1" />
  <line x1="100" y1="500" x2="1180" y2="500" stroke="#dbe4f3" stroke-width="1" />
  <line x1="100" y1="550" x2="1180" y2="550" stroke="#dbe4f3" stroke-width="1" />
  <line x1="100" y1="600" x2="1180" y2="600" stroke="#dbe4f3" stroke-width="1" />
  <line x1="100" y1="650" x2="1180" y2="650" stroke="#dbe4f3" stroke-width="1" />
  <line x1="100" y1="700" x2="1180" y2="700" stroke="#dbe4f3" stroke-width="1" />
  <line x1="100" y1="750" x2="1180" y2="750" stroke="#dbe4f3" stroke-width="1" />
  <rect x="80" y="80" width="1120" height="700" rx="20" fill="none" stroke="#b8c7dd" stroke-width="2"/>
  <text x="100" y="55" font-size="36" font-family="Inter, Arial, sans-serif" font-weight="700" fill="#111827">Vector Search Simulation</text>
  <text x="100" y="88" font-size="20" font-family="Inter, Arial, sans-serif" fill="#334155">Clusters represent semantic neighborhoods in embedding space.</text>
  <circle cx="310.00" cy="240.00" r="120" fill="#4f46e5" fill-opacity="0.10" stroke="#4f46e5" stroke-opacity="0.45" stroke-width="2" />
  <circle cx="299.91" cy="230.49" r="4.6" fill="#4f46e5" fill-opacity="0.82" />
  <circle cx="302.21" cy="278.61" r="4.6" fill="#4f46e5" fill-opacity="0.82" />
  <circle cx="301.07" cy="157.65" r="4.6" fill="#4f46e5" fill-opacity="0.82" />
  <circle cx="333.26" cy="225.30" r="4.6" fill="#4f46e5" fill-opacity="0.82" />
  <circle cx="294.81" cy="246.37" r="4.6" fill="#4f46e5" fill-opacity="0.82" />
  <circle cx="326.26" cy="304.00" r="4.6" fill="#4f46e5" fill-opacity="0.82" />
  <circle cx="355.96" cy="246.08" r="4.6" fill="#4f46e5" fill-opacity="0.82" />
  <circle cx="258.32" cy="184.19" r="4.6" fill="#4f46e5" fill-opacity="0.82" />
  <circle cx="327.24" cy="312.11" r="4.6" fill="#4f46e5" fill-opacity="0.82" />
  <circle cx="312.92" cy="234.15" r="4.6" fill="#4f46e5" fill-opacity="0.82" />
  <circle cx="347.22" cy="160.06" r="4.6" fill="#4f46e5" fill-opacity="0.82" />
  <circle cx="288.14" cy="266.97" r="4.6" fill="#4f46e5" fill-opacity="0.82" />
  <circle cx="371.14" cy="226.77" r="4.6" fill="#4f46e5" fill-opacity="0.82" />
  <circle cx="336.36" cy="253.65" r="4.6" fill="#4f46e5" fill-opacity="0.82" />
  <circle cx="364.76" cy="178.77" r="4.6" fill="#4f46e5" fill-opacity="0.82" />
  <circle cx="349.78" cy="156.70" r="4.6" fill="#4f46e5" fill-opacity="0.82" />
  <circle cx="126.60" cy="206.62" r="4.6" fill="#4f46e5" fill-opacity="0.82" />
  <circle cx="245.89" cy="288.18" r="4.6" fill="#4f46e5" fill-opacity="0.82" />
  <circle cx="356.50" cy="172.95" r="4.6" fill="#4f46e5" fill-opacity="0.82" />
  <circle cx="369.32" cy="184.88" r="4.6" fill="#4f46e5" fill-opacity="0.82" />
  <circle cx="303.96" cy="223.84" r="4.6" fill="#4f46e5" fill-opacity="0.82" />
  <circle cx="318.01" cy="285.02" r="4.6" fill="#4f46e5" fill-opacity="0.82" />
  <circle cx="354.69" cy="259.24" r="4.6" fill="#4f46e5" fill-opacity="0.82" />
  <circle cx="355.50" cy="266.32" r="4.6" fill="#4f46e5" fill-opacity="0.82" />
  <circle cx="266.11" cy="200.54" r="4.6" fill="#4f46e5" fill-opacity="0.82" />
  <circle cx="277.10" cy="267.46" r="4.6" fill="#4f46e5" fill-opacity="0.82" />
  <circle cx="292.49" cy="368.47" r="4.6" fill="#4f46e5" fill-opacity="0.82" />
  <circle cx="252.65" cy="179.56" r="4.6" fill="#4f46e5" fill-opacity="0.82" />
  <circle cx="363.79" cy="318.20" r="4.6" fill="#4f46e5" fill-opacity="0.82" />
  <circle cx="345.40" cy="285.97" r="4.6" fill="#4f46e5" fill-opacity="0.82" />
  <circle cx="409.84" cy="234.83" r="4.6" fill="#4f46e5" fill-opacity="0.82" />
  <circle cx="210.39" cy="210.74" r="4.6" fill="#4f46e5" fill-opacity="0.82" />
  <circle cx="376.70" cy="160.60" r="4.6" fill="#4f46e5" fill-opacity="0.82" />
  <circle cx="312.35" cy="253.93" r="4.6" fill="#4f46e5" fill-opacity="0.82" />
  <circle cx="287.91" cy="279.80" r="4.6" fill="#4f46e5" fill-opacity="0.82" />
  <circle cx="350.65" cy="367.68" r="4.6" fill="#4f46e5" fill-opacity="0.82" />
  <circle cx="353.40" cy="206.48" r="4.6" fill="#4f46e5" fill-opacity="0.82" />
  <circle cx="270.67" cy="194.26" r="4.6" fill="#4f46e5" fill-opacity="0.82" />
  <circle cx="376.66" cy="208.82" r="4.6" fill="#4f46e5" fill-opacity="0.82" />
  <circle cx="305.08" cy="281.21" r="4.6" fill="#4f46e5" fill-opacity="0.82" />
  <circle cx="259.36" cy="223.85" r="4.6" fill="#4f46e5" fill-opacity="0.82" />
  <circle cx="181.11" cy="180.46" r="4.6" fill="#4f46e5" fill-opacity="0.82" />
  <text x="255.00" y="108.00" font-size="16" font-family="Inter, Arial, sans-serif" font-weight="600" fill="#4f46e5">AI Research</text>
  <circle cx="560.00" cy="520.00" r="120" fill="#0ea5e9" fill-opacity="0.10" stroke="#0ea5e9" stroke-opacity="0.45" stroke-width="2" />
  <circle cx="511.74" cy="547.02" r="4.6" fill="#0ea5e9" fill-opacity="0.82" />
  <circle cx="661.45" cy="518.80" r="4.6" fill="#0ea5e9" fill-opacity="0.82" />
  <circle cx="582.22" cy="530.92" r="4.6" fill="#0ea5e9" fill-opacity="0.82" />
  <circle cx="652.20" cy="578.07" r="4.6" fill="#0ea5e9" fill-opacity="0.82" />
  <circle cx="583.26" cy="454.29" r="4.6" fill="#0ea5e9" fill-opacity="0.82" />
  <circle cx="636.79" cy="544.77" r="4.6" fill="#0ea5e9" fill-opacity="0.82" />
  <circle cx="664.29" cy="518.06" r="4.6" fill="#0ea5e9" fill-opacity="0.82" />
  <circle cx="726.01" cy="496.67" r="4.6" fill="#0ea5e9" fill-opacity="0.82" />
  <circle cx="695.41" cy="527.48" r="4.6" fill="#0ea5e9" fill-opacity="0.82" />
  <circle cx="516.12" cy="446.65" r="4.6" fill="#0ea5e9" fill-opacity="0.82" />
  <circle cx="547.16" cy="612.52" r="4.6" fill="#0ea5e9" fill-opacity="0.82" />
  <circle cx="629.39" cy="564.78" r="4.6" fill="#0ea5e9" fill-opacity="0.82" />
  <circle cx="358.05" cy="566.21" r="4.6" fill="#0ea5e9" fill-opacity="0.82" />
  <circle cx="607.25" cy="484.25" r="4.6" fill="#0ea5e9" fill-opacity="0.82" />
  <circle cx="506.67" cy="519.85" r="4.6" fill="#0ea5e9" fill-opacity="0.82" />
  <circle cx="706.61" cy="451.42" r="4.6" fill="#0ea5e9" fill-opacity="0.82" />
  <circle cx="523.64" cy="608.52" r="4.6" fill="#0ea5e9" fill-opacity="0.82" />
  <circle cx="522.08" cy="496.32" r="4.6" fill="#0ea5e9" fill-opacity="0.82" />
  <circle cx="568.31" cy="439.32" r="4.6" fill="#0ea5e9" fill-opacity="0.82" />
  <circle cx="578.70" cy="441.37" r="4.6" fill="#0ea5e9" fill-opacity="0.82" />
  <circle cx="635.24" cy="520.21" r="4.6" fill="#0ea5e9" fill-opacity="0.82" />
  <circle cx="754.09" cy="538.25" r="4.6" fill="#0ea5e9" fill-opacity="0.82" />
  <circle cx="676.08" cy="435.29" r="4.6" fill="#0ea5e9" fill-opacity="0.82" />
  <circle cx="549.62" cy="541.00" r="4.6" fill="#0ea5e9" fill-opacity="0.82" />
  <circle cx="708.39" cy="410.74" r="4.6" fill="#0ea5e9" fill-opacity="0.82" />
  <circle cx="644.20" cy="558.44" r="4.6" fill="#0ea5e9" fill-opacity="0.82" />
  <circle cx="690.35" cy="566.31" r="4.6" fill="#0ea5e9" fill-opacity="0.82" />
  <circle cx="564.43" cy="486.09" r="4.6" fill="#0ea5e9" fill-opacity="0.82" />
  <circle cx="453.90" cy="532.70" r="4.6" fill="#0ea5e9" fill-opacity="0.82" />
  <circle cx="543.71" cy="651.32" r="4.6" fill="#0ea5e9" fill-opacity="0.82" />
  <circle cx="508.06" cy="540.83" r="4.6" fill="#0ea5e9" fill-opacity="0.82" />
  <circle cx="426.63" cy="494.29" r="4.6" fill="#0ea5e9" fill-opacity="0.82" />
  <circle cx="582.20" cy="573.56" r="4.6" fill="#0ea5e9" fill-opacity="0.82" />
  <circle cx="683.09" cy="517.13" r="4.6" fill="#0ea5e9" fill-opacity="0.82" />
  <circle cx="465.03" cy="549.76" r="4.6" fill="#0ea5e9" fill-opacity="0.82" />
  <circle cx="603.94" cy="551.96" r="4.6" fill="#0ea5e9" fill-opacity="0.82" />
  <circle cx="500.48" cy="593.67" r="4.6" fill="#0ea5e9" fill-opacity="0.82" />
  <circle cx="567.47" cy="565.49" r="4.6" fill="#0ea5e9" fill-opacity="0.82" />
  <circle cx="668.30" cy="559.60" r="4.6" fill="#0ea5e9" fill-opacity="0.82" />
  <circle cx="584.35" cy="659.93" r="4.6" fill="#0ea5e9" fill-opacity="0.82" />
  <circle cx="580.71" cy="500.76" r="4.6" fill="#0ea5e9" fill-opacity="0.82" />
  <circle cx="569.52" cy="616.38" r="4.6" fill="#0ea5e9" fill-opacity="0.82" />
  <circle cx="570.09" cy="553.76" r="4.6" fill="#0ea5e9" fill-opacity="0.82" />
  <circle cx="661.64" cy="486.66" r="4.6" fill="#0ea5e9" fill-opacity="0.82" />
  <circle cx="413.24" cy="539.46" r="4.6" fill="#0ea5e9" fill-opacity="0.82" />
  <circle cx="579.53" cy="480.48" r="4.6" fill="#0ea5e9" fill-opacity="0.82" />
  <text x="505.00" y="388.00" font-size="16" font-family="Inter, Arial, sans-serif" font-weight="600" fill="#0ea5e9">Databases</text>
  <circle cx="360.00" cy="620.00" r="120" fill="#16a34a" fill-opacity="0.10" stroke="#16a34a" stroke-opacity="0.45" stroke-width="2" />
  <circle cx="425.33" cy="656.45" r="4.6" fill="#16a34a" fill-opacity="0.82" />
  <circle cx="285.38" cy="651.09" r="4.6" fill="#16a34a" fill-opacity="0.82" />
  <circle cx="345.29" cy="531.02" r="4.6" fill="#16a34a" fill-opacity="0.82" />
  <circle cx="393.97" cy="617.29" r="4.6" fill="#16a34a" fill-opacity="0.82" />
  <circle cx="304.10" cy="651.38" r="4.6" fill="#16a34a" fill-opacity="0.82" />
  <circle cx="396.61" cy="585.35" r="4.6" fill="#16a34a" fill-opacity="0.82" />
  <circle cx="390.03" cy="680.90" r="4.6" fill="#16a34a" fill-opacity="0.82" />
  <circle cx="306.55" cy="642.85" r="4.6" fill="#16a34a" fill-opacity="0.82" />
  <circle cx="360.21" cy="740.00" r="4.6" fill="#16a34a" fill-opacity="0.82" />
  <circle cx="220.33" cy="661.72" r="4.6" fill="#16a34a" fill-opacity="0.82" />
  <circle cx="337.03" cy="613.99" r="4.6" fill="#16a34a" fill-opacity="0.82" />
  <circle cx="502.62" cy="619.49" r="4.6" fill="#16a34a" fill-opacity="0.82" />
  <circle cx="528.07" cy="593.47" r="4.6" fill="#16a34a" fill-opacity="0.82" />
  <circle cx="386.29" cy="590.55" r="4.6" fill="#16a34a" fill-opacity="0.82" />
  <circle cx="308.20" cy="623.75" r="4.6" fill="#16a34a" fill-opacity="0.82" />
  <circle cx="338.81" cy="632.15" r="4.6" fill="#16a34a" fill-opacity="0.82" />
  <circle cx="202.12" cy="740.00" r="4.6" fill="#16a34a" fill-opacity="0.82" />
  <circle cx="347.48" cy="724.57" r="4.6" fill="#16a34a" fill-opacity="0.82" />
  <circle cx="284.47" cy="637.55" r="4.6" fill="#16a34a" fill-opacity="0.82" />
  <circle cx="597.37" cy="567.82" r="4.6" fill="#16a34a" fill-opacity="0.82" />
  <circle cx="247.85" cy="587.21" r="4.6" fill="#16a34a" fill-opacity="0.82" />
  <circle cx="395.44" cy="661.60" r="4.6" fill="#16a34a" fill-opacity="0.82" />
  <circle cx="456.78" cy="604.58" r="4.6" fill="#16a34a" fill-opacity="0.82" />
  <circle cx="239.83" cy="593.90" r="4.6" fill="#16a34a" fill-opacity="0.82" />
  <circle cx="453.02" cy="647.94" r="4.6" fill="#16a34a" fill-opacity="0.82" />
  <circle cx="213.23" cy="617.90" r="4.6" fill="#16a34a" fill-opacity="0.82" />
  <circle cx="464.86" cy="740.00" r="4.6" fill="#16a34a" fill-opacity="0.82" />
  <circle cx="402.13" cy="638.56" r="4.6" fill="#16a34a" fill-opacity="0.82" />
  <circle cx="266.98" cy="569.41" r="4.6" fill="#16a34a" fill-opacity="0.82" />
  <circle cx="363.52" cy="650.19" r="4.6" fill="#16a34a" fill-opacity="0.82" />
  <circle cx="403.51" cy="591.31" r="4.6" fill="#16a34a" fill-opacity="0.82" />
  <circle cx="273.60" cy="573.33" r="4.6" fill="#16a34a" fill-opacity="0.82" />
  <circle cx="273.23" cy="658.60" r="4.6" fill="#16a34a" fill-opacity="0.82" />
  <circle cx="186.58" cy="600.00" r="4.6" fill="#16a34a" fill-opacity="0.82" />
  <circle cx="393.74" cy="711.32" r="4.6" fill="#16a34a" fill-opacity="0.82" />
  <circle cx="365.35" cy="680.08" r="4.6" fill="#16a34a" fill-opacity="0.82" />
  <circle cx="330.07" cy="575.34" r="4.6" fill="#16a34a" fill-opacity="0.82" />
  <circle cx="309.42" cy="711.64" r="4.6" fill="#16a34a" fill-opacity="0.82" />
  <circle cx="434.57" cy="649.24" r="4.6" fill="#16a34a" fill-opacity="0.82" />
  <circle cx="609.77" cy="618.06" r="4.6" fill="#16a34a" fill-opacity="0.82" />
  <text x="305.00" y="488.00" font-size="16" font-family="Inter, Arial, sans-serif" font-weight="600" fill="#16a34a">Backend Systems</text>
  <circle cx="780.00" cy="300.00" r="120" fill="#f59e0b" fill-opacity="0.10" stroke="#f59e0b" stroke-opacity="0.45" stroke-width="2" />
  <circle cx="829.63" cy="319.07" r="4.6" fill="#f59e0b" fill-opacity="0.82" />
  <circle cx="762.25" cy="443.60" r="4.6" fill="#f59e0b" fill-opacity="0.82" />
  <circle cx="900.53" cy="213.23" r="4.6" fill="#f59e0b" fill-opacity="0.82" />
  <circle cx="748.01" cy="326.56" r="4.6" fill="#f59e0b" fill-opacity="0.82" />
  <circle cx="842.65" cy="216.40" r="4.6" fill="#f59e0b" fill-opacity="0.82" />
  <circle cx="599.56" cy="181.81" r="4.6" fill="#f59e0b" fill-opacity="0.82" />
  <circle cx="774.31" cy="293.60" r="4.6" fill="#f59e0b" fill-opacity="0.82" />
  <circle cx="807.62" cy="252.28" r="4.6" fill="#f59e0b" fill-opacity="0.82" />
  <circle cx="682.06" cy="174.57" r="4.6" fill="#f59e0b" fill-opacity="0.82" />
  <circle cx="806.33" cy="322.94" r="4.6" fill="#f59e0b" fill-opacity="0.82" />
  <circle cx="859.44" cy="349.03" r="4.6" fill="#f59e0b" fill-opacity="0.82" />
  <circle cx="764.74" cy="383.65" r="4.6" fill="#f59e0b" fill-opacity="0.82" />
  <circle cx="769.09" cy="259.03" r="4.6" fill="#f59e0b" fill-opacity="0.82" />
  <circle cx="738.35" cy="263.74" r="4.6" fill="#f59e0b" fill-opacity="0.82" />
  <circle cx="606.74" cy="309.69" r="4.6" fill="#f59e0b" fill-opacity="0.82" />
  <circle cx="799.99" cy="277.54" r="4.6" fill="#f59e0b" fill-opacity="0.82" />
  <circle cx="722.89" cy="323.05" r="4.6" fill="#f59e0b" fill-opacity="0.82" />
  <circle cx="917.35" cy="302.37" r="4.6" fill="#f59e0b" fill-opacity="0.82" />
  <circle cx="739.39" cy="263.33" r="4.6" fill="#f59e0b" fill-opacity="0.82" />
  <circle cx="774.42" cy="221.58" r="4.6" fill="#f59e0b" fill-opacity="0.82" />
  <circle cx="769.98" cy="303.79" r="4.6" fill="#f59e0b" fill-opacity="0.82" />
  <circle cx="927.57" cy="358.50" r="4.6" fill="#f59e0b" fill-opacity="0.82" />
  <circle cx="862.72" cy="255.80" r="4.6" fill="#f59e0b" fill-opacity="0.82" />
  <circle cx="833.59" cy="229.36" r="4.6" fill="#f59e0b" fill-opacity="0.82" />
  <circle cx="804.96" cy="325.96" r="4.6" fill="#f59e0b" fill-opacity="0.82" />
  <circle cx="718.69" cy="423.96" r="4.6" fill="#f59e0b" fill-opacity="0.82" />
  <circle cx="825.39" cy="182.03" r="4.6" fill="#f59e0b" fill-opacity="0.82" />
  <circle cx="824.23" cy="274.74" r="4.6" fill="#f59e0b" fill-opacity="0.82" />
  <circle cx="780.11" cy="328.88" r="4.6" fill="#f59e0b" fill-opacity="0.82" />
  <circle cx="811.24" cy="173.57" r="4.6" fill="#f59e0b" fill-opacity="0.82" />
  <circle cx="687.33" cy="347.90" r="4.6" fill="#f59e0b" fill-opacity="0.82" />
  <circle cx="884.10" cy="418.00" r="4.6" fill="#f59e0b" fill-opacity="0.82" />
  <circle cx="924.25" cy="172.56" r="4.6" fill="#f59e0b" fill-opacity="0.82" />
  <circle cx="841.56" cy="181.19" r="4.6" fill="#f59e0b" fill-opacity="0.82" />
  <circle cx="909.09" cy="315.71" r="4.6" fill="#f59e0b" fill-opacity="0.82" />
  <circle cx="688.71" cy="424.61" r="4.6" fill="#f59e0b" fill-opacity="0.82" />
  <circle cx="831.52" cy="182.75" r="4.6" fill="#f59e0b" fill-opacity="0.82" />
  <circle cx="803.48" cy="254.67" r="4.6" fill="#f59e0b" fill-opacity="0.82" />
  <circle cx="788.90" cy="271.16" r="4.6" fill="#f59e0b" fill-opacity="0.82" />
  <circle cx="889.88" cy="211.76" r="4.6" fill="#f59e0b" fill-opacity="0.82" />
  <circle cx="805.39" cy="412.48" r="4.6" fill="#f59e0b" fill-opacity="0.82" />
  <circle cx="713.84" cy="313.06" r="4.6" fill="#f59e0b" fill-opacity="0.82" />
  <circle cx="796.16" cy="257.24" r="4.6" fill="#f59e0b" fill-opacity="0.82" />
  <circle cx="831.83" cy="306.02" r="4.6" fill="#f59e0b" fill-opacity="0.82" />
  <text x="725.00" y="168.00" font-size="16" font-family="Inter, Arial, sans-serif" font-weight="600" fill="#f59e0b">Search</text>
  <circle cx="980.00" cy="580.00" r="120" fill="#ef4444" fill-opacity="0.10" stroke="#ef4444" stroke-opacity="0.45" stroke-width="2" />
  <circle cx="913.94" cy="676.91" r="4.6" fill="#ef4444" fill-opacity="0.82" />
  <circle cx="1035.41" cy="570.81" r="4.6" fill="#ef4444" fill-opacity="0.82" />
  <circle cx="935.43" cy="536.86" r="4.6" fill="#ef4444" fill-opacity="0.82" />
  <circle cx="1066.17" cy="571.94" r="4.6" fill="#ef4444" fill-opacity="0.82" />
  <circle cx="1012.16" cy="569.85" r="4.6" fill="#ef4444" fill-opacity="0.82" />
  <circle cx="1023.15" cy="573.62" r="4.6" fill="#ef4444" fill-opacity="0.82" />
  <circle cx="1033.47" cy="569.92" r="4.6" fill="#ef4444" fill-opacity="0.82" />
  <circle cx="1038.07" cy="616.98" r="4.6" fill="#ef4444" fill-opacity="0.82" />
  <circle cx="971.84" cy="532.71" r="4.6" fill="#ef4444" fill-opacity="0.82" />
  <circle cx="914.19" cy="539.26" r="4.6" fill="#ef4444" fill-opacity="0.82" />
  <circle cx="911.09" cy="627.62" r="4.6" fill="#ef4444" fill-opacity="0.82" />
  <circle cx="976.74" cy="666.36" r="4.6" fill="#ef4444" fill-opacity="0.82" />
  <circle cx="1139.55" cy="581.33" r="4.6" fill="#ef4444" fill-opacity="0.82" />
  <circle cx="871.64" cy="559.02" r="4.6" fill="#ef4444" fill-opacity="0.82" />
  <circle cx="974.73" cy="498.14" r="4.6" fill="#ef4444" fill-opacity="0.82" />
  <circle cx="962.47" cy="595.78" r="4.6" fill="#ef4444" fill-opacity="0.82" />
  <circle cx="947.84" cy="537.74" r="4.6" fill="#ef4444" fill-opacity="0.82" />
  <circle cx="926.89" cy="678.27" r="4.6" fill="#ef4444" fill-opacity="0.82" />
  <circle cx="968.82" cy="534.35" r="4.6" fill="#ef4444" fill-opacity="0.82" />
  <circle cx="953.90" cy="632.49" r="4.6" fill="#ef4444" fill-opacity="0.82" />
  <circle cx="932.07" cy="606.50" r="4.6" fill="#ef4444" fill-opacity="0.82" />
  <circle cx="1030.95" cy="621.20" r="4.6" fill="#ef4444" fill-opacity="0.82" />
  <circle cx="1077.98" cy="549.72" r="4.6" fill="#ef4444" fill-opacity="0.82" />
  <circle cx="1059.29" cy="536.39" r="4.6" fill="#ef4444" fill-opacity="0.82" />
  <circle cx="952.24" cy="645.78" r="4.6" fill="#ef4444" fill-opacity="0.82" />
  <circle cx="1037.57" cy="580.12" r="4.6" fill="#ef4444" fill-opacity="0.82" />
  <circle cx="896.60" cy="610.89" r="4.6" fill="#ef4444" fill-opacity="0.82" />
  <circle cx="935.87" cy="529.19" r="4.6" fill="#ef4444" fill-opacity="0.82" />
  <circle cx="934.63" cy="593.56" r="4.6" fill="#ef4444" fill-opacity="0.82" />
  <circle cx="831.53" cy="599.84" r="4.6" fill="#ef4444" fill-opacity="0.82" />
  <circle cx="992.17" cy="547.85" r="4.6" fill="#ef4444" fill-opacity="0.82" />
  <circle cx="1052.58" cy="613.63" r="4.6" fill="#ef4444" fill-opacity="0.82" />
  <circle cx="937.56" cy="543.15" r="4.6" fill="#ef4444" fill-opacity="0.82" />
  <circle cx="1028.66" cy="496.62" r="4.6" fill="#ef4444" fill-opacity="0.82" />
  <circle cx="956.72" cy="545.29" r="4.6" fill="#ef4444" fill-opacity="0.82" />
  <circle cx="984.89" cy="591.61" r="4.6" fill="#ef4444" fill-opacity="0.82" />
  <circle cx="982.58" cy="642.42" r="4.6" fill="#ef4444" fill-opacity="0.82" />
  <circle cx="995.96" cy="562.68" r="4.6" fill="#ef4444" fill-opacity="0.82" />
  <text x="925.00" y="448.00" font-size="16" font-family="Inter, Arial, sans-serif" font-weight="600" fill="#ef4444">Product Docs</text>
  <line x1="860.00" y1="430.00" x2="884.10" y2="418.00" stroke="#f59e0b" stroke-width="3" stroke-opacity="0.85" stroke-linecap="round" />
  <circle cx="884.10" cy="418.00" r="7.3" fill="none" stroke="#f59e0b" stroke-width="2.5" />
  <line x1="860.00" y1="430.00" x2="805.39" y2="412.48" stroke="#f59e0b" stroke-width="3" stroke-opacity="0.85" stroke-linecap="round" />
  <circle cx="805.39" cy="412.48" r="7.3" fill="none" stroke="#f59e0b" stroke-width="2.5" />
  <line x1="860.00" y1="430.00" x2="859.44" y2="349.03" stroke="#f59e0b" stroke-width="3" stroke-opacity="0.85" stroke-linecap="round" />
  <circle cx="859.44" cy="349.03" r="7.3" fill="none" stroke="#f59e0b" stroke-width="2.5" />
  <line x1="860.00" y1="430.00" x2="927.57" y2="358.50" stroke="#f59e0b" stroke-width="2" stroke-opacity="0.55" stroke-linecap="round" stroke-dasharray="6 6" />
  <circle cx="927.57" cy="358.50" r="7.3" fill="none" stroke="#f59e0b" stroke-width="2.5" />
  <line x1="860.00" y1="430.00" x2="762.25" y2="443.60" stroke="#f59e0b" stroke-width="2" stroke-opacity="0.55" stroke-linecap="round" stroke-dasharray="6 6" />
  <circle cx="762.25" cy="443.60" r="7.3" fill="none" stroke="#f59e0b" stroke-width="2.5" />
  <line x1="860.00" y1="430.00" x2="764.74" y2="383.65" stroke="#f59e0b" stroke-width="2" stroke-opacity="0.55" stroke-linecap="round" stroke-dasharray="6 6" />
  <circle cx="764.74" cy="383.65" r="7.3" fill="none" stroke="#f59e0b" stroke-width="2.5" />
  <line x1="860.00" y1="430.00" x2="829.63" y2="319.07" stroke="#f59e0b" stroke-width="2" stroke-opacity="0.55" stroke-linecap="round" stroke-dasharray="6 6" />
  <circle cx="829.63" cy="319.07" r="7.3" fill="none" stroke="#f59e0b" stroke-width="2.5" />
  <circle cx="860.00" cy="430.00" r="12" fill="#111827" filter="url(#shadow)" />
  <circle cx="860.00" cy="430.00" r="22" fill="none" stroke="#111827" stroke-opacity="0.25" stroke-width="2"/>
  <text x="880.00" y="436.00" font-size="17" font-family="Inter, Arial, sans-serif" fill="#111827" font-weight="600">Query embedding</text>
  <rect x="1220" y="120" width="160" height="420" rx="14" fill="#ffffff" stroke="#c9d6ea" stroke-width="1.5" filter="url(#shadow)" />
  <text x="1235" y="155" font-size="18" font-family="Inter, Arial, sans-serif" font-weight="700" fill="#0f172a">Retrieval Steps</text>
  <text x="1235" y="190" font-size="14" font-family="Inter, Arial, sans-serif" fill="#334155">1. Embed query</text>
  <text x="1235" y="220" font-size="14" font-family="Inter, Arial, sans-serif" fill="#334155">2. ANN candidate search</text>
  <text x="1235" y="250" font-size="14" font-family="Inter, Arial, sans-serif" fill="#334155">3. Distance rerank</text>
  <text x="1235" y="280" font-size="14" font-family="Inter, Arial, sans-serif" fill="#334155">4. Return top-k</text>
  <line x1="1235" y1="304" x2="1365" y2="304" stroke="#d8e2f0" stroke-width="1" />
  <text x="1235" y="332" font-size="14" font-family="Inter, Arial, sans-serif" fill="#0f172a" font-weight="600">Nearest neighbors</text>
  <circle cx="1243" cy="358" r="6" fill="#f59e0b" />
  <text x="1256" y="363" font-size="12.5" font-family="Inter, Arial, sans-serif" fill="#334155">#1 Search</text>
  <text x="1365" y="363" text-anchor="end" font-size="12" font-family="Inter, Arial, sans-serif" fill="#64748b">sim 0.036</text>
  <circle cx="1243" cy="392" r="6" fill="#f59e0b" />
  <text x="1256" y="397" font-size="12.5" font-family="Inter, Arial, sans-serif" fill="#334155">#2 Search</text>
  <text x="1365" y="397" text-anchor="end" font-size="12" font-family="Inter, Arial, sans-serif" fill="#64748b">sim 0.017</text>
  <circle cx="1243" cy="426" r="6" fill="#f59e0b" />
  <text x="1256" y="431" font-size="12.5" font-family="Inter, Arial, sans-serif" fill="#334155">#3 Search</text>
  <text x="1365" y="431" text-anchor="end" font-size="12" font-family="Inter, Arial, sans-serif" fill="#64748b">sim 0.012</text>
  <circle cx="1243" cy="460" r="6" fill="#f59e0b" />
  <text x="1256" y="465" font-size="12.5" font-family="Inter, Arial, sans-serif" fill="#334155">#4 Search</text>
  <text x="1365" y="465" text-anchor="end" font-size="12" font-family="Inter, Arial, sans-serif" fill="#64748b">sim 0.010</text>
  <circle cx="1243" cy="494" r="6" fill="#f59e0b" />
  <text x="1256" y="499" font-size="12.5" font-family="Inter, Arial, sans-serif" fill="#334155">#5 Search</text>
  <text x="1365" y="499" text-anchor="end" font-size="12" font-family="Inter, Arial, sans-serif" fill="#64748b">sim 0.010</text>
  <text x="100" y="820" font-size="15" font-family="Inter, Arial, sans-serif" fill="#475569">Generated with Python: semantic clusters + nearest-neighbor lookup visualization.</text>
</svg>